HIERARCHY
ROOT Hips
{
  OFFSET 639.274 91.6836 315.052
  CHANNELS 6 Xposition Yposition Zposition Zrotation Xrotation Yrotation
  JOINT RightUpLeg
  {
    OFFSET -9.25985 -1.60365 -0.0187739
    CHANNELS 3 Zrotation Xrotation Yrotation
    JOINT RightLeg
    {
      OFFSET -0.094831 -41.8688 0.0174557
      CHANNELS 3 Zrotation Xrotation Yrotation
      JOINT RightFoot
      {
        OFFSET 0.650373 -40.2339 0.621458
        CHANNELS 3 Zrotation Xrotation Yrotation
        End Site
        {
          OFFSET 0 -7.69 17.5
        }
      }
    }
  }
  JOINT LeftUpLeg
  {
    OFFSET 9.2903 -1.58411 0.0508507
    CHANNELS 3 Zrotation Xrotation Yrotation
    JOINT LeftLeg
    {
      OFFSET 0.0129639 -41.8667 -0.0374806
      CHANNELS 3 Zrotation Xrotation Yrotation
      JOINT LeftFoot
      {
        OFFSET -0.538477 -42.8324 -0.561746
        CHANNELS 3 Zrotation Xrotation Yrotation
        End Site
        {
          OFFSET 0 -7.69 17.5
        }
      }
    }
  }
  JOINT Spine
  {
    OFFSET -0.0214982 14.3015 0.0443202
    CHANNELS 3 Zrotation Xrotation Yrotation
    JOINT Spine1
    {
      OFFSET 0.0022465 9.72014 0.00669841
      CHANNELS 3 Zrotation Xrotation Yrotation
      JOINT Spine2
      {
        OFFSET 0.00146158 10.1173 0.0197944
        CHANNELS 3 Zrotation Xrotation Yrotation
        JOINT Spine3
        {
          OFFSET -0.0156274 9.7076 0.00989878
          CHANNELS 3 Zrotation Xrotation Yrotation
          JOINT Neck
          {
            OFFSET 0.165589 10.3915 -0.00835134
            CHANNELS 3 Zrotation Xrotation Yrotation
            JOINT Head
            {
              OFFSET 0.0812125 9.44463 -0.145599
              CHANNELS 3 Zrotation Xrotation Yrotation
              End Site
              {
                OFFSET 0 15.95 0
              }
            }
          }
          JOINT RightShoulder
          {
            OFFSET -3.21994 6.90495 0.0220692
            CHANNELS 3 Zrotation Xrotation Yrotation
            JOINT RightArm
            {
              OFFSET -12.8037 -0.0606308 0.0147852
              CHANNELS 3 Zrotation Xrotation Yrotation
              JOINT RightForeArm
              {
                OFFSET -26.4637 -0.0789474 -0.0354015
                CHANNELS 3 Zrotation Xrotation Yrotation
                JOINT RightHand
                {
                  OFFSET -25.9947 0.0146297 0.104278
                  CHANNELS 3 Zrotation Xrotation Yrotation
                  JOINT RightHandThumb1
                  {
                    OFFSET -2.48905 0.190105 3.12053
                    CHANNELS 3 Zrotation Xrotation Yrotation
                    JOINT RightHandThumb2
                    {
                      OFFSET -3.68274 0 0
                      CHANNELS 3 Zrotation Xrotation Yrotation
                      JOINT RightHandThumb3
                      {
                        OFFSET -2.55832 0 0
                        CHANNELS 3 Zrotation Xrotation Yrotation
                        End Site
                        {
                          OFFSET -2.194 0 0
                        }
                      }
                    }
                  }
                  JOINT RightInHandIndex
                  {
                    OFFSET -3.22368 0.508421 1.97842
                    CHANNELS 3 Zrotation Xrotation Yrotation
                    JOINT RightHandIndex1
                    {
                      OFFSET -5.21684 -0.091368 0.999158
                      CHANNELS 3 Zrotation Xrotation Yrotation
                      JOINT RightHandIndex2
                      {
                        OFFSET -3.61937 0 0
                        CHANNELS 3 Zrotation Xrotation Yrotation
                        JOINT RightHandIndex3
                        {
                          OFFSET -2.0521 0 0
                          CHANNELS 3 Zrotation Xrotation Yrotation
                          End Site
                          {
                            OFFSET -1.805 0 0
                          }
                        }
                      }
                    }
                  }
                  JOINT RightInHandMiddle
                  {
                    OFFSET -3.38211 0.517263 0.756737
                    CHANNELS 3 Zrotation Xrotation Yrotation
                    JOINT RightHandMiddle1
                    {
                      OFFSET -5.17411 -0.084 0.313895
                      CHANNELS 3 Zrotation Xrotation Yrotation
                      JOINT RightHandMiddle2
                      {
                        OFFSET -3.94947 0 0
                        CHANNELS 3 Zrotation Xrotation Yrotation
                        JOINT RightHandMiddle3
                        {
                          OFFSET -2.47579 0 0
                          CHANNELS 3 Zrotation Xrotation Yrotation
                          End Site
                          {
                            OFFSET -1.975 0 0
                          }
                        }
                      }
                    }
                  }
                  JOINT RightInHandRing
                  {
                    OFFSET -3.36516 0.537895 -0.128947
                    CHANNELS 3 Zrotation Xrotation Yrotation
                    JOINT RightHandRing1
                    {
                      OFFSET -4.63474 -0.022105 -0.478947
                      CHANNELS 3 Zrotation Xrotation Yrotation
                      JOINT RightHandRing2
                      {
                        OFFSET -3.44238 0 0
                        CHANNELS 3 Zrotation Xrotation Yrotation
                        JOINT RightHandRing3
                        {
                          OFFSET -2.3881 0 0
                          CHANNELS 3 Zrotation Xrotation Yrotation
                          End Site
                          {
                            OFFSET -1.857 0 0
                          }
                        }
                      }
                    }
                  }
                  JOINT RightInHandPinky
                  {
                    OFFSET -3.16105 0.469368 -1.20179
                    CHANNELS 3 Zrotation Xrotation Yrotation
                    JOINT RightHandPinky1
                    {
                      OFFSET -4.14105 -0.022105 -1.09053
                      CHANNELS 3 Zrotation Xrotation Yrotation
                      JOINT RightHandPinky2
                      {
                        OFFSET -2.75653 0 0
                        CHANNELS 3 Zrotation Xrotation Yrotation
                        JOINT RightHandPinky3
                        {
                          OFFSET -1.74189 0 0
                          CHANNELS 3 Zrotation Xrotation Yrotation
                          End Site
                          {
                            OFFSET -1.645 0 0
                          }
                        }
                      }
                    }
                  }
                }
              }
            }
          }
          JOINT LeftShoulder
          {
            OFFSET 3.19857 6.92241 -0.0483269
            CHANNELS 3 Zrotation Xrotation Yrotation
            JOINT LeftArm
            {
              OFFSET 12.7761 -0.0372945 -0.0469981
              CHANNELS 3 Zrotation Xrotation Yrotation
              JOINT LeftForeArm
              {
                OFFSET 26.5223 -0.0536086 0.0116233
                CHANNELS 3 Zrotation Xrotation Yrotation
                JOINT LeftHand
                {
                  OFFSET 26.014 0.0546016 -0.0883512
                  CHANNELS 3 Zrotation Xrotation Yrotation
                  JOINT LeftHandThumb1
                  {
                    OFFSET 2.48905 0.190105 3.12053
                    CHANNELS 3 Zrotation Xrotation Yrotation
                    JOINT LeftHandThumb2
                    {
                      OFFSET 3.68274 0 0
                      CHANNELS 3 Zrotation Xrotation Yrotation
                      JOINT LeftHandThumb3
                      {
                        OFFSET 2.55832 0 0
                        CHANNELS 3 Zrotation Xrotation Yrotation
                        End Site
                        {
                          OFFSET 2.194 0 0
                        }
                      }
                    }
                  }
                  JOINT LeftInHandIndex
                  {
                    OFFSET 3.22368 0.508421 1.97842
                    CHANNELS 3 Zrotation Xrotation Yrotation
                    JOINT LeftHandIndex1
                    {
                      OFFSET 5.21684 -0.091368 0.999158
                      CHANNELS 3 Zrotation Xrotation Yrotation
                      JOINT LeftHandIndex2
                      {
                        OFFSET 3.61937 0 0
                        CHANNELS 3 Zrotation Xrotation Yrotation
                        JOINT LeftHandIndex3
                        {
                          OFFSET 2.0521 0 0
                          CHANNELS 3 Zrotation Xrotation Yrotation
                          End Site
                          {
                            OFFSET 1.805 0 0
                          }
                        }
                      }
                    }
                  }
                  JOINT LeftInHandMiddle
                  {
                    OFFSET 3.38211 0.517263 0.756737
                    CHANNELS 3 Zrotation Xrotation Yrotation
                    JOINT LeftHandMiddle1
                    {
                      OFFSET 5.17411 -0.084 0.313895
                      CHANNELS 3 Zrotation Xrotation Yrotation
                      JOINT LeftHandMiddle2
                      {
                        OFFSET 3.94947 0 0
                        CHANNELS 3 Zrotation Xrotation Yrotation
                        JOINT LeftHandMiddle3
                        {
                          OFFSET 2.47579 0 0
                          CHANNELS 3 Zrotation Xrotation Yrotation
                          End Site
                          {
                            OFFSET 1.975 0 0
                          }
                        }
                      }
                    }
                  }
                  JOINT LeftInHandRing
                  {
                    OFFSET 3.36516 0.537895 -0.128947
                    CHANNELS 3 Zrotation Xrotation Yrotation
                    JOINT LeftHandRing1
                    {
                      OFFSET 4.63474 -0.022105 -0.478947
                      CHANNELS 3 Zrotation Xrotation Yrotation
                      JOINT LeftHandRing2
                      {
                        OFFSET 3.44238 0 0
                        CHANNELS 3 Zrotation Xrotation Yrotation
                        JOINT LeftHandRing3
                        {
                          OFFSET 2.3881 0 0
                          CHANNELS 3 Zrotation Xrotation Yrotation
                          End Site
                          {
                            OFFSET 1.857 0 0
                          }
                        }
                      }
                    }
                  }
                  JOINT LeftInHandPinky
                  {
                    OFFSET 3.16105 0.469368 -1.20179
                    CHANNELS 3 Zrotation Xrotation Yrotation
                    JOINT LeftHandPinky1
                    {
                      OFFSET 4.14105 -0.022105 -1.09053
                      CHANNELS 3 Zrotation Xrotation Yrotation
                      JOINT LeftHandPinky2
                      {
                        OFFSET 2.75653 0 0
                        CHANNELS 3 Zrotation Xrotation Yrotation
                        JOINT LeftHandPinky3
                        {
                          OFFSET 1.74189 0 0
                          CHANNELS 3 Zrotation Xrotation Yrotation
                          End Site
                          {
                            OFFSET 1.645 0 0
                          }
                        }
                      }
                    }
                  }
                }
              }
            }
          }
        }
      }
    }
  }
}
MOTION
Frames:	5
Frame Time:	0.00833333
648.563 88.2223 295.58 33.6012 21.6663 -57.2452 -24.6287 -60.6514 -15.8545 0.758552 29.402 -25.1695 11.2594 -0.215298 27.7973 16.3473 -65.0378 -4.82591 -6.5953 37.8334 -2.17621 -10.9131 -13.9921 23.2776 5.56211 6.34609 -2.26279 1.36476 1.65528 -0.42437 2.26891 2.77086 -0.650628 -0.737125 -0.619232 0.628658 -0.740862 -0.610157 0.637329 -12.7003 -10.3211 11.3947 -2.33852 -6.88445 -6.75426 72.4656 22.1345 60.3798 2.4303 -31.2384 1.0559 43.995 -9.70675 -7.96055 28.184 10.7294 19.1592 7.73084e-14 2.82647e-16 -10 3.32689e-14 5.51627e-15 -10 9.54166e-15 3.18055e-15 -0 19.9818 0.871897 2.3964 24 7.15625e-15 3.49861e-14 20 0 2.54444e-14 9.54166e-15 3.18055e-15 -0 20 1.59028e-15 6.36111e-15 24 7.15625e-15 3.81667e-14 20 6.36111e-15 3.49861e-14 9.54166e-15 3.18055e-15 -0 19.9748 -1.02565 -2.81938 24 5.56597e-15 2.54444e-14 20 4.77083e-15 2.8625e-14 9.54166e-15 3.18055e-15 -0 19.7815 -3.00948 -8.30515 24 5.1684e-15 2.22639e-14 20 9.54166e-15 2.54444e-14 -1.19726 -9.59451 -30.4331 -30.3516 45.3736 -77.9679 35.8756 -60.1805 33.8186 5.422 4.69647 -4.36546 -28.184 10.7294 -19.1592 8.06175e-16 -4.57205e-15 10 1.03198e-14 -3.57812e-15 10 4.96962e-17 -3.97569e-16 -1.12826e-15 -19.9818 0.871897 -2.3964 -24 -3.77691e-15 6.36111e-15 -20 3.67752e-15 6.36111e-15 4.96962e-17 -3.97569e-16 -1.12826e-15 -20 4.57205e-15 3.97569e-15 -24 -9.93923e-16 2.38542e-15 -20 -9.93923e-17 2.38542e-15 4.96962e-17 -3.97569e-16 -1.12826e-15 -19.9748 -1.02565 2.81938 -24 0 4.17448e-15 -20 -9.93923e-16 5.1684e-15 4.96962e-17 -3.97569e-16 -1.12826e-15 -19.7815 -3.00948 8.30515 -24 0 7.95139e-15 -20 -4.96962e-16 6.36111e-15 
648.555 88.2182 295.595 33.7123 21.4252 -57.8106 -24.0683 -60.8072 -15.1687 0.673877 29.2775 -25.0368 11.2183 -0.0952907 27.9373 16.9396 -64.8441 -4.16533 -6.65877 37.9845 -2.03242 -10.9112 -14.1753 23.4347 5.52257 6.35522 -2.34333 1.35402 1.66011 -0.44607 2.25154 2.78071 -0.687572 -0.748842 -0.626837 0.659934 -0.752808 -0.617148 0.669137 -12.8825 -10.403 11.969 -2.55951 -6.8166 -6.13526 72.4625 22.1382 60.3831 2.41938 -31.2192 1.02714 43.9085 -10.056 -6.66783 28.184 10.7294 19.1592 9.01065e-17 -4.64038e-15 -10 1.31156e-14 1.40392e-15 -10 9.54166e-15 -3.18055e-15 6.36111e-15 19.9818 0.871897 2.3964 24 3.18055e-15 9.54166e-15 20 -1.59028e-15 9.54166e-15 9.54166e-15 -3.18055e-15 6.36111e-15 20 -7.95139e-16 -2.54444e-14 24 0 6.36111e-15 20 0 -3.18055e-15 9.54166e-15 -3.18055e-15 6.36111e-15 19.9748 -1.02565 -2.81938 24 2.38542e-15 -0 20 -3.18055e-15 -3.18055e-15 9.54166e-15 -3.18055e-15 6.36111e-15 19.7815 -3.00948 -8.30515 24 1.98785e-15 -9.54166e-15 20 3.18055e-15 -0 -1.21651 -9.64689 -30.5242 -30.0074 45.3737 -78.1976 32.5353 -58.0577 30.5676 5.96745 2.47701 -3.7297 -28.184 10.7294 -19.1592 9.80278e-15 -6.4605e-16 10 6.03863e-15 2.38542e-15 10 -4.96962e-17 2.48481e-17 -3.90387e-16 -19.9818 0.871897 -2.3964 -24 -9.26834e-15 3.43401e-14 -20 -5.81445e-15 3.68249e-14 -4.96962e-17 2.48481e-17 -3.90387e-16 -20 -4.89507e-15 2.97307e-14 -24 -6.11263e-15 3.48122e-14 -20 -4.2366e-15 3.96575e-14 -4.96962e-17 2.48481e-17 -3.90387e-16 -19.9748 -1.02565 2.81938 -24 -7.25564e-15 4.10242e-14 -20 -5.13113e-15 3.35946e-14 -4.96962e-17 2.48481e-17 -3.90387e-16 -19.7815 -3.00948 8.30515 -24 -6.22444e-15 4.01545e-14 -20 -6.75868e-15 3.48122e-14 
648.542 88.2146 295.607 33.8185 21.1875 -58.386 -23.4715 -60.9675 -14.4324 0.591702 29.1478 -24.9328 11.1795 0.0350221 28.0826 17.5429 -64.6382 -3.47109 -6.70154 38.1293 -1.91569 -10.911 -14.3573 23.5904 5.48586 6.36155 -2.42541 1.34397 1.66388 -0.468161 2.23532 2.78959 -0.725169 -0.761051 -0.63458 0.691864 -0.765258 -0.624258 0.701663 -13.074 -10.4847 12.5577 -2.6739 -6.75567 -5.78137 72.4786 22.1123 60.3673 2.48883 -31.3504 1.21699 43.8543 -10.225 -5.9823 28.184 10.7294 19.1592 -1.99834e-14 5.71506e-16 -10 -8.20442e-15 -4.74598e-15 -10 6.36111e-15 -1.59028e-15 9.54166e-15 19.9818 0.871897 2.3964 24 -3.18055e-15 6.36111e-15 20 -1.59028e-15 -6.36111e-15 6.36111e-15 -1.59028e-15 9.54166e-15 20 -3.18055e-15 6.36111e-15 24 0 -3.18055e-15 20 -1.59028e-15 -9.54166e-15 6.36111e-15 -1.59028e-15 9.54166e-15 19.9748 -1.02565 -2.81938 24 1.59028e-15 -0 20 0 -3.18055e-15 6.36111e-15 -1.59028e-15 9.54166e-15 19.7815 -3.00948 -8.30515 24 -2.38542e-15 9.54166e-15 20 0 -3.18055e-15 -1.23877 -9.69355 -30.6115 -29.5946 45.4016 -78.5028 32.4597 -57.7979 30.5422 6.15302 2.65004 -3.75158 -28.184 10.7294 -19.1592 -3.36982e-15 7.95139e-16 10 -2.94921e-15 -1.59028e-15 10 9.93923e-17 0 9.19379e-16 -19.9818 0.871897 -2.3964 -24 2.5842e-15 -1.59028e-15 -20 -8.94531e-16 1.78906e-15 9.93923e-17 0 9.19379e-16 -20 2.5842e-15 -4.96962e-16 -24 6.16232e-15 -3.97569e-16 -20 -2.98177e-16 2.98177e-15 9.93923e-17 0 9.19379e-16 -19.9748 -1.02565 2.81938 -24 4.57205e-15 7.25564e-15 -20 1.19271e-15 5.36719e-15 9.93923e-17 0 9.19379e-16 -19.7815 -3.00948 8.30515 -24 -1.59028e-15 -7.95139e-16 -20 -3.97569e-16 5.96354e-15 
648.526 88.21 295.624 33.9233 20.9536 -58.9762 -22.8425 -61.1307 -13.6702 0.509779 29.023 -24.8174 11.1365 0.156834 28.2255 18.1759 -64.4285 -2.75098 -6.73946 38.2847 -1.81144 -10.9161 -14.5485 23.7549 5.46187 6.36376 -2.51348 1.33707 1.66797 -0.491519 2.22431 2.79741 -0.764798 -0.772805 -0.64294 0.724588 -0.777272 -0.631939 0.735013 -13.2563 -10.5743 13.1627 -2.13887 -6.74494 -7.13806 72.5895 21.9222 60.2517 3.07639 -32.4243 2.77431 44.199 -9.20888 -9.44496 28.184 10.7294 19.1592 -8.38114e-14 1.47225e-15 -10 -2.27571e-14 2.01269e-15 -10 -3.18055e-15 1.59028e-15 -0 19.9818 0.871897 2.3964 24 -5.56597e-15 -1.27222e-14 20 -1.59028e-15 -6.36111e-15 -3.18055e-15 1.59028e-15 -0 20 -7.95139e-16 -0 24 -3.18055e-15 -1.90833e-14 20 -1.59028e-15 -9.54166e-15 -3.18055e-15 1.59028e-15 -0 19.9748 -1.02565 -2.81938 24 -5.56597e-15 -2.54444e-14 20 0 -9.54166e-15 -3.18055e-15 1.59028e-15 -0 19.7815 -3.00948 -8.30515 24 -1.59028e-15 -6.36111e-15 20 1.59028e-15 3.18055e-15 -1.2821 -9.74588 -30.6954 -29.1698 45.4165 -78.8031 32.2085 -57.4501 30.354 6.35884 2.71749 -3.74582 -28.184 10.7294 -19.1592 -4.90715e-16 2.78299e-15 10 -8.41226e-16 4.77083e-15 10 8.75022e-33 3.97569e-16 -1.26104e-15 -19.9818 0.871897 -2.3964 -24 0 6.36111e-15 -20 2.5842e-15 -1.19271e-15 8.75022e-33 3.97569e-16 -1.26104e-15 -20 5.1684e-15 1.09332e-15 -24 5.1684e-15 3.97569e-16 -20 -1.59028e-15 1.07344e-14 8.75022e-33 3.97569e-16 -1.26104e-15 -19.9748 -1.02565 2.81938 -24 3.97569e-16 2.98177e-15 -20 -3.37934e-15 2.78299e-15 8.75022e-33 3.97569e-16 -1.26104e-15 -19.7815 -3.00948 8.30515 -24 -3.97569e-16 4.17448e-15 -20 -7.95139e-16 3.97569e-16 
648.504 88.2033 295.639 34.0182 20.7123 -59.5632 -22.2137 -61.2854 -12.9137 0.42851 28.9029 -24.7055 11.0877 0.280081 28.3801 18.7846 -64.2075 -2.07454 -6.80355 38.4429 -1.67696 -10.9165 -14.7397 23.9198 5.42957 6.37348 -2.60698 1.32799 1.67352 -0.516367 2.20974 2.80866 -0.806979 -0.783449 -0.652546 0.757405 -0.788155 -0.640857 0.768486 -13.416 -10.684 13.7712 -2.1028 -6.69614 -7.14694 72.7928 21.4595 60.0829 3.57031 -32.4132 3.33979 44.3252 -8.9224 -10.5411 28.184 10.7294 19.1592 8.59342e-14 -1.45361e-15 -10 1.91967e-14 4.12478e-15 -10 9.54166e-15 1.59028e-15 6.36111e-15 19.9818 0.871897 2.3964 24 1.11319e-14 3.18055e-14 20 3.18055e-15 1.59028e-14 9.54166e-15 1.59028e-15 6.36111e-15 20 5.56597e-15 9.54166e-15 24 7.95139e-15 3.49861e-14 20 0 6.36111e-15 9.54166e-15 1.59028e-15 6.36111e-15 19.9748 -1.02565 -2.81938 24 7.95139e-15 3.49861e-14 20 4.77083e-15 2.8625e-14 9.54166e-15 1.59028e-15 6.36111e-15 19.7815 -3.00948 -8.30515 24 7.95139e-15 2.54444e-14 20 1.59028e-15 6.36111e-15 -1.3176 -9.81924 -30.7824 -28.7246 45.4387 -79.11 31.9423 -57.1066 30.1534 6.55724 2.78394 -3.74599 -28.184 10.7294 -19.1592 -4.90715e-16 2.78299e-15 10 -0 0 10 9.93923e-17 7.95139e-16 1.758e-15 -19.9818 0.871897 -2.3964 -24 4.77083e-15 -1.03368e-14 -20 1.39149e-15 -8.74653e-15 9.93923e-17 7.95139e-16 1.758e-15 -20 3.18055e-15 -2.18663e-15 -24 4.77083e-15 -9.93923e-15 -20 -2.78299e-15 -5.56597e-15 9.93923e-17 7.95139e-16 1.758e-15 -19.9748 -1.02565 2.81938 -24 1.98785e-15 -8.34896e-15 -20 4.96962e-15 -7.55382e-15 9.93923e-17 7.95139e-16 1.758e-15 -19.7815 -3.00948 8.30515 -24 3.97569e-15 -4.37326e-15 -20 1.98785e-15 -8.34896e-15 
